<svg xmlns="http://www.w3.org/2000/svg" width="172" height="30" viewBox="0 0 172 30">
    <g fill="none" fill-rule="evenodd">
        <g>
            <g>
                <path d="M0 0H172V30H0z" transform="translate(-64.000000, -64.000000) translate(64.000000, 64.000000)"/>
                <path fill="#F9F9F9" fill-rule="nonzero" d="M94.26 21.338c1.242 0 2.168-.427 2.779-1.28.61-.853.916-2.118.916-3.796 0-1.677-.306-2.942-.916-3.795-.611-.854-1.537-1.28-2.778-1.28h-2.836v10.15h2.836zm-.057-1.062h-1.556V12.25h1.556c.814 0 1.427.28 1.84.843.411.562.617 1.357.617 2.385v1.57c0 1.028-.206 1.823-.618 2.386-.412.562-1.025.843-1.84.843zm6.767 1.062l.858-2.894h3.563l.858 2.894h1.294l-3.112-10.151h-1.614l-3.112 10.15h1.265zm4.13-3.956h-2.981l1.425-4.9h.131l1.425 4.9zm7.698 4.13c1.135 0 2.01-.266 2.625-.8.616-.533.924-1.27.924-2.21 0-.33-.044-.645-.131-.945-.087-.3-.235-.572-.444-.815-.208-.242-.482-.45-.821-.625-.34-.175-.757-.305-1.251-.393l-1.09-.189c-.718-.126-1.215-.332-1.491-.618-.277-.286-.415-.657-.415-1.112 0-.582.184-1.018.553-1.31.368-.29.897-.436 1.585-.436.63 0 1.144.117 1.541.35.398.232.737.533 1.018.901l.858-.742c-.339-.494-.787-.877-1.345-1.148-.557-.272-1.243-.408-2.058-.408-1.037 0-1.861.238-2.472.713-.61.475-.916 1.178-.916 2.109 0 .32.044.627.13.923.088.296.234.567.437.815.204.247.473.458.807.632.335.175.75.306 1.244.393l1.134.189c.698.116 1.188.313 1.469.589.281.276.422.662.422 1.156 0 .61-.194 1.086-.582 1.425-.388.34-.95.51-1.687.51-.61 0-1.137-.122-1.578-.364-.441-.243-.86-.611-1.258-1.106l-.887.728c.378.523.858.952 1.44 1.287.581.334 1.328.501 2.24.501zm7.262-.174v-4.61h3.956v4.61h1.221V11.187h-1.221v4.48h-3.956v-4.48h-1.222v10.15h1.222zm11.988 0c.388 0 .75-.075 1.084-.226.334-.15.625-.356.872-.618.248-.261.439-.572.575-.93.135-.36.203-.742.203-1.15 0-.707-.184-1.248-.552-1.62-.369-.374-.839-.629-1.411-.764v-.044c.465-.145.846-.393 1.142-.742.295-.349.443-.829.443-1.44 0-.794-.247-1.43-.741-1.904-.495-.476-1.178-.713-2.051-.713h-3.447v10.15h3.883zm-.567-5.745h-2.094V12.25h2.094c.514 0 .916.116 1.207.349.291.232.436.581.436 1.047v.567c0 .465-.145.812-.436 1.04-.29.227-.693.341-1.207.341zm.204 4.683h-2.298v-3.68h2.298c.562 0 1.003.13 1.323.386.32.257.48.643.48 1.156v.597c0 .523-.16.911-.48 1.163-.32.252-.761.378-1.323.378zm8.774 1.236c.62 0 1.154-.118 1.6-.356.446-.237.814-.58 1.105-1.025.29-.446.504-.994.64-1.644.136-.65.203-1.39.203-2.225 0-.824-.067-1.563-.203-2.217-.136-.655-.35-1.205-.64-1.651-.29-.446-.66-.788-1.105-1.025-.446-.238-.98-.357-1.6-.357-.62 0-1.154.12-1.6.357-.446.237-.814.579-1.105 1.025-.29.446-.504.996-.64 1.65-.136.655-.204 1.394-.204 2.218 0 .834.068 1.576.204 2.225.136.65.35 1.198.64 1.644.29.446.66.788 1.105 1.025.446.238.98.356 1.6.356zm0-1.061c-.407 0-.751-.08-1.033-.24-.28-.16-.513-.386-.698-.676-.184-.291-.317-.643-.4-1.055-.082-.412-.123-.875-.123-1.389v-1.658c0-.504.041-.964.123-1.381.083-.417.216-.77.4-1.062.185-.29.417-.516.698-.676.282-.16.626-.24 1.033-.24.407 0 .751.08 1.032.24.282.16.514.385.699.676.184.291.317.645.4 1.062.082.417.123.877.123 1.381v1.658c0 .514-.041.977-.124 1.39-.082.411-.215.763-.4 1.054-.184.29-.416.516-.698.676-.28.16-.625.24-1.032.24zm6.564.887l.858-2.894h3.563l.858 2.894h1.294l-3.112-10.151h-1.614l-3.113 10.15h1.266zm4.13-3.956h-2.981l1.425-4.9h.13l1.426 4.9zm5.895 3.956v-4.334h1.614l2.472 4.334h1.367l-2.588-4.392c.814-.078 1.434-.364 1.861-.858.427-.495.64-1.154.64-1.978 0-.921-.247-1.638-.742-2.152-.494-.514-1.212-.771-2.152-.771h-3.694v10.15h1.222zm2.443-5.366h-2.443v-3.723h2.443c.514 0 .914.128 1.2.385.286.257.429.623.429 1.098v.756c0 .475-.143.841-.43 1.098-.285.257-.685.386-1.2.386zm8.454 5.366c1.241 0 2.167-.427 2.778-1.28.61-.853.916-2.118.916-3.796 0-1.677-.305-2.942-.916-3.795-.611-.854-1.537-1.28-2.778-1.28h-2.836v10.15h2.836zm-.058-1.062h-1.556V12.25h1.556c.814 0 1.428.28 1.84.843.412.562.618 1.357.618 2.385v1.57c0 1.028-.206 1.823-.618 2.386-.412.562-1.026.843-1.84.843z" transform="translate(-64.000000, -64.000000) translate(64.000000, 64.000000)"/>
                <path fill="#F9F9F9" d="M5.064 14.685l4.822 2.709v5.4L5.064 25.5l-4.82-2.706v-5.4l4.82-2.71zm11.034 0l4.822 2.709v5.4L16.098 25.5l-4.82-2.706v-5.4l4.82-2.71zm42.17-3.332v7.644l1.655 1.432.017-.014-1.187 1.327h-.019l-2.097-1.815-2.505 1.465c-.41.237-.876.362-1.35.357-.709-.005-1.392-.277-1.91-.762-.539-.503-.838-1.213-.824-1.95-.002-.974.52-1.874 1.367-2.356l5.05-2.895v-.644H50.55v-1.79h7.719zm-29.357.085c.802-.392 1.705-.529 2.588-.392.845.17 1.627.57 2.258 1.159.166.145.443.417.632.606l.122.121.08.08-1.178 1.336c.014-.017-.801-.773-.883-.841-.389-.367-.863-.627-1.383-.754-.539-.12-1.104-.022-1.573.27-.323.195-.508.552-.484.928.006.372.213.71.54.885.547.291 1.136.49 1.747.586.387.075.766.172 1.102.261.335.088.662.21.974.359.314.11.602.285.844.515.233.194.416.438.537.715.152.298.232.626.236.96.034.957-.403 1.87-1.17 2.444-.81.602-1.8.911-2.809.876-.379.002-.76-.036-1.131-.114-1.007-.247-1.925-.768-2.652-1.506-.05-.043-.608-.566-.608-.566l1.145-1.378c.246.23.486.462.741.677.313.303.655.574 1.02.813.913.518 2.035.518 2.948 0 .375-.227.596-.638.58-1.074.008-.364-.223-.687-.569-.799-.634-.27-1.298-.47-1.979-.59-.864-.152-1.684-.485-2.408-.978-.602-.433-.895-1.095-.895-2.025-.018-.85.365-1.657 1.03-2.183.186-.152.386-.282.598-.39zm17.705-.135c0-.022.006.006.006.006h1.922l-1.606 10.212h-3.152l-1.15-8.808h-.024l-1.164 8.804H38.3l-1.573-10.214h1.926l1.267 8.822h.024l1.114-8.822h3.157l1.109 8.822h.025zm33.488-.29c.703-.039 1.386.244 1.858.765.435.557.655 1.252.618 1.958v7.76h-1.89V14.08c-.014-.314-.113-.621-.288-.886-.212-.26-.54-.396-.873-.359-.362-.011-.708.145-.936.427-.272.41-.4.9-.357 1.391v6.854h-1.88v-7.337c.018-.353-.097-.7-.317-.976-.206-.241-.508-.373-.824-.359-.376-.022-.74.145-.966.448-.253.366-.379.808-.358 1.252v6.978h-1.876v-10.21h1.876v.946c.153-.354.401-.657.715-.877.38-.245.821-.37 1.272-.358.465-.02.923.124 1.296.404.304.244.535.57.664.937.424-.855 1.312-1.381 2.266-1.341zm-13.503-.011c.899-.011 1.763.349 2.387.996.66.62 1.031 1.488 1.023 2.393v.588h-1.764v-.588c0-.05-.003-.099-.008-.146-.08-.877-.859-1.519-1.735-1.436-.832.111-1.449.829-1.431 1.668v5.205h2.574v1.764H61.56v-1.764h1.687v-5.62l-1.697-1.538 1.178-1.315 1.195 1.096c.626-.846 1.625-1.332 2.677-1.303zm-10.136 4.89L52.32 18.27c-.288.158-.465.46-.46.789.01.496.41.894.905.905.166-.003.328-.052.468-.143h-.022l3.254-1.89v-2.04zM10.544 5.254l1.847 1.102v3.181l.634.354 2.347 1.318v2.15l-4.82 2.707-4.82-2.706v-5.4l4.812-2.706zm5.638-.755l2.568 1.44v2.886l-2.548 1.428-.02-.011-2.553-1.43V5.951l.005-.021L16.182 4.5z" transform="translate(-64.000000, -64.000000) translate(64.000000, 64.000000)"/>
            </g>
        </g>
    </g>
</svg>
