<?xml version="1.0" encoding="UTF-8"?>
<svg width="150px" height="31px" viewBox="0 0 150 31" version="1.1" xmlns="http://www.w3.org/2000/svg" xmlns:xlink="http://www.w3.org/1999/xlink">
    <title>Swarm Dashboard logo Copy 7</title>
    <g id="Page-1" stroke="none" stroke-width="1" fill="none" fill-rule="evenodd">
        <g id="Swarm-Dashboard-logo-Copy-7" transform="translate(0.000000, 0.500000)">
            <rect id="bouding-box" x="0" y="0" width="150" height="30"></rect>
            <g id="DESKTOP" transform="translate(142.934301, 11.030000)"></g>
            <path d="M89.0093009,11.03 L91.9343009,11.03 C93.2043009,11.03 94.1568009,11.47 94.7918009,12.35 C95.4268009,13.23 95.7443009,14.535 95.7443009,16.265 C95.7443009,17.995 95.4268009,19.3 94.7918009,20.18 C94.1568009,21.06 93.2043009,21.5 91.9343009,21.5 L89.0093009,21.5 L89.0093009,11.03 Z M91.8743009,20.405 C92.6943009,20.405 93.3218009,20.115 93.7568009,19.535 C94.1918009,18.955 94.4093009,18.135 94.4093009,17.075 L94.4093009,15.455 C94.4093009,14.395 94.1918009,13.575 93.7568009,12.995 C93.3218009,12.415 92.6943009,12.125 91.8743009,12.125 L90.2693009,12.125 L90.2693009,20.405 L91.8743009,20.405 Z M97.9343009,21.5 L97.9343009,11.03 L104.384301,11.03 L104.384301,12.125 L99.1943009,12.125 L99.1943009,15.65 L104.204301,15.65 L104.204301,16.745 L99.1943009,16.745 L99.1943009,20.405 L104.384301,20.405 L104.384301,21.5 L97.9343009,21.5 Z M110.054301,21.68 C109.164301,21.68 108.414301,21.5175 107.804301,21.1925 C107.194301,20.8675 106.679301,20.415 106.259301,19.835 L107.174301,19.085 C107.584301,19.605 108.019301,19.9875 108.479301,20.2325 C108.939301,20.4775 109.479301,20.6 110.099301,20.6 C110.849301,20.6 111.426801,20.425 111.831801,20.075 C112.236801,19.725 112.439301,19.235 112.439301,18.605 C112.439301,18.085 112.289301,17.685 111.989301,17.405 C111.689301,17.125 111.189301,16.925 110.489301,16.805 L109.319301,16.61 C108.359301,16.45 107.669301,16.1175 107.249301,15.6125 C106.829301,15.1075 106.619301,14.49 106.619301,13.76 C106.619301,12.82 106.929301,12.1 107.549301,11.6 C108.169301,11.1 109.024301,10.85 110.114301,10.85 C110.924301,10.85 111.621801,10.9875 112.206801,11.2625 C112.791801,11.5375 113.264301,11.935 113.624301,12.455 L112.739301,13.22 C112.419301,12.8 112.051801,12.48 111.636801,12.26 C111.221801,12.04 110.709301,11.93 110.099301,11.93 C109.389301,11.93 108.844301,12.0825 108.464301,12.3875 C108.084301,12.6925 107.894301,13.14 107.894301,13.73 C107.894301,14.22 108.041801,14.61 108.336801,14.9 C108.631801,15.19 109.139301,15.395 109.859301,15.515 L110.984301,15.71 C111.954301,15.88 112.651801,16.215 113.076801,16.715 C113.501801,17.215 113.714301,17.835 113.714301,18.575 C113.714301,19.215 113.571801,19.7675 113.286801,20.2325 C113.001801,20.6975 112.584301,21.055 112.034301,21.305 C111.484301,21.555 110.824301,21.68 110.054301,21.68 Z M118.619301,16.37 L117.119301,18.14 L117.119301,21.5 L115.859301,21.5 L115.859301,11.03 L117.119301,11.03 L117.119301,16.49 L117.164301,16.49 L118.544301,14.75 L121.634301,11.03 L123.149301,11.03 L119.474301,15.44 L123.254301,21.5 L121.784301,21.5 L118.619301,16.37 Z M128.714301,12.125 L128.714301,21.5 L127.454301,21.5 L127.454301,12.125 L123.959301,12.125 L123.959301,11.03 L132.209301,11.03 L132.209301,12.125 L128.714301,12.125 Z M137.084301,21.68 C135.834301,21.68 134.911801,21.2175 134.316801,20.2925 C133.721801,19.3675 133.424301,18.025 133.424301,16.265 C133.424301,14.505 133.721801,13.1625 134.316801,12.2375 C134.911801,11.3125 135.834301,10.85 137.084301,10.85 C138.334301,10.85 139.256801,11.3125 139.851801,12.2375 C140.446801,13.1625 140.744301,14.505 140.744301,16.265 C140.744301,18.025 140.446801,19.3675 139.851801,20.2925 C139.256801,21.2175 138.334301,21.68 137.084301,21.68 Z M137.084301,20.585 C137.884301,20.585 138.471801,20.2825 138.846801,19.6775 C139.221801,19.0725 139.409301,18.22 139.409301,17.12 L139.409301,15.41 C139.409301,14.31 139.221801,13.4575 138.846801,12.8525 C138.471801,12.2475 137.884301,11.945 137.084301,11.945 C136.284301,11.945 135.696801,12.2475 135.321801,12.8525 C134.946801,13.4575 134.759301,14.31 134.759301,15.41 L134.759301,17.12 C134.759301,18.22 134.946801,19.0725 135.321801,19.6775 C135.696801,20.2825 136.284301,20.585 137.084301,20.585 Z M142.934301,21.5 L142.934301,11.03 L146.744301,11.03 C147.704301,11.03 148.441801,11.295 148.956801,11.825 C149.471801,12.355 149.729301,13.095 149.729301,14.045 C149.729301,14.995 149.471801,15.735 148.956801,16.265 C148.441801,16.795 147.704301,17.06 146.744301,17.06 L144.194301,17.06 L144.194301,21.5 L142.934301,21.5 Z M144.194301,15.965 L146.714301,15.965 C147.244301,15.965 147.656801,15.8325 147.951801,15.5675 C148.246801,15.3025 148.394301,14.925 148.394301,14.435 L148.394301,13.655 C148.394301,13.165 148.246801,12.7875 147.951801,12.5225 C147.656801,12.2575 147.244301,12.125 146.714301,12.125 L144.194301,12.125 L144.194301,15.965 Z M46.6161218,11.3030413 L45.3492761,20.1247496 L45.3237798,20.1247496 L44.2146922,11.3030413 L41.0579357,11.3030413 L39.9440676,20.1247496 L39.9201648,20.1247496 L38.6533191,11.3030413 L36.7267574,11.3030413 L38.2995584,21.5174832 L41.4483473,21.5174832 L42.6116145,12.7133036 L42.6355172,12.7133036 L43.7860362,21.5206702 L46.9380122,21.5206702 L48.544277,11.3094154 L46.6224959,11.3094154 C46.6224959,11.3094154 46.6161218,11.2807321 46.6161218,11.3030413 M80.1040339,11.0127026 C79.1495174,10.9728647 78.2619286,11.4987252 77.8380532,12.3544436 C77.7089783,11.9863413 77.4779184,11.6612639 77.1735567,11.4174558 C76.8006738,11.1369969 76.3433345,10.9935804 75.8780277,11.0127026 C75.4270625,11.001548 74.9856584,11.1258423 74.6064014,11.3712439 C74.2924786,11.5911492 74.04389,11.8939173 73.8909124,12.247678 L73.8909124,11.3027226 L72.0153433,11.3027226 L72.0153433,21.5123839 L73.8909124,21.5123839 L73.8909124,14.5343744 C73.8701967,14.0897833 73.9960845,13.6483792 74.2494537,13.2818703 C74.475733,12.9791022 74.8390548,12.8117829 75.2151247,12.8340922 C75.530641,12.8197505 75.8334092,12.9520124 76.0389729,13.1926334 C76.2588782,13.4683118 76.3736114,13.8156984 76.3560827,14.1694591 L76.3560827,21.5060098 L78.2364323,21.5060098 L78.2364323,14.6522947 C78.1934074,14.1614915 78.3208887,13.6706884 78.5933801,13.2611546 C78.821253,12.9791022 79.1670461,12.8229375 79.5287744,12.8340922 C79.8618193,12.7974413 80.1900838,12.9328902 80.4020215,13.1926334 C80.6059916,13.5017756 80.7063832,13.8682845 80.690448,14.2363868 L80.690448,21.4964487 L82.5803588,21.4964487 L82.5803588,13.7360226 C82.6170097,13.0300947 82.3971044,12.3353214 81.9620743,11.7775906 C81.4903934,11.2565107 80.8067747,10.9744582 80.1040339,11.0127026 M56.4650109,17.9307958 L53.2110499,19.8207066 L53.2333591,19.8207066 C53.0931297,19.9115371 52.930591,19.9609361 52.7648652,19.9641231 C52.2692816,19.9529685 51.8709024,19.5545893 51.8597478,19.0590056 C51.8549672,18.7307412 52.0318476,18.427973 52.3202741,18.2702149 L56.4650109,15.8910945 L56.4650109,17.9307958 Z M58.2688718,18.9968585 L58.2688718,11.3527591 L50.5498771,11.3527591 L50.5498771,13.1422783 L56.4650109,13.1422783 L56.4650109,13.786059 L51.4151566,16.6814788 C50.5674058,17.1627208 50.0463258,18.0630577 50.0479193,19.0366964 C50.0335777,19.7744946 50.3331588,20.4836095 50.8717674,20.9871608 C51.3896604,21.4715899 52.073279,21.7440812 52.7823939,21.7488618 C53.2556684,21.7536423 53.7225687,21.629348 54.1321025,21.391914 L56.6371107,19.9274722 L58.7341787,21.7424877 L58.7533009,21.7424877 L59.9404708,20.4150883 L59.9229421,20.42943 L58.2688718,18.9968585 Z M66.6012111,11.0018667 C65.5494901,10.9731834 64.5503551,11.459206 63.9241031,12.3053633 L62.7289656,11.2090239 L61.5513568,12.5236751 L63.248452,14.0614187 L63.248452,19.681752 L61.5609179,19.681752 L61.5609179,21.4457749 L67.646558,21.4457749 L67.646558,19.681752 L65.0730286,19.681752 L65.0730286,14.4773265 C65.0554999,13.6375433 65.6721909,12.9204608 66.5040066,12.8089146 C67.3804407,12.7260517 68.1580769,13.3682389 68.2393462,14.2446731 C68.2441268,14.2924786 68.2473138,14.3418776 68.2473138,14.3912766 L68.2473138,14.9792843 L70.0113367,14.9792843 L70.0113367,14.3912766 C70.0193043,13.4861592 69.6480149,12.6176926 68.988299,11.9978146 C68.3636405,11.3508468 67.4999545,10.9907121 66.6012111,11.0018667 M34.2974413,16.5567064 C34.0552267,16.32724 33.7668002,16.1519532 33.4528774,16.0420005 C33.1405482,15.89221 32.8138773,15.7711027 32.4792388,15.6834593 C32.1430067,15.5942224 31.7637498,15.4970178 31.3765252,15.4221226 C30.7662083,15.3265116 30.1766072,15.127322 29.630031,14.8357084 C29.30336,14.6604216 29.0962029,14.3225961 29.0898288,13.9513067 C29.0659261,13.5752368 29.250774,13.218289 29.5742579,13.02388 C30.0427518,12.7306729 30.6084502,12.6334684 31.1470588,12.7529822 C31.6665453,12.8804635 32.1414132,13.1402067 32.5302313,13.5067155 C32.6115006,13.5752368 33.4273812,14.3305636 33.4130395,14.3480923 L34.5906483,13.0127254 C34.5906483,13.0127254 34.0265434,12.4406529 33.7572391,12.2048124 C33.1262065,11.6168048 32.3437898,11.2152386 31.499226,11.0463258 C30.6164178,10.9092834 29.7128938,11.0463258 28.9113549,11.4383309 C28.6994172,11.54669 28.4986341,11.6773584 28.3137862,11.8287425 C27.6476962,12.354603 27.2652522,13.1625159 27.2827809,14.0118603 C27.2827809,14.942474 27.575988,15.6037835 28.1783373,16.03722 C28.9017938,16.5296166 29.7224549,16.8626616 30.586141,17.0156392 C31.2665726,17.135153 31.931069,17.3343426 32.5652887,17.6052404 C32.9110818,17.7167866 33.1421417,18.0402704 33.1341741,18.4035922 C33.1501093,18.8402158 32.9286105,19.2513431 32.554134,19.4776225 C31.641049,19.9955154 30.5192133,19.9955154 29.6061282,19.4776225 C29.2412129,19.238595 28.8986068,18.9676971 28.5862775,18.664929 C28.3313149,18.4498042 28.0906939,18.2171508 27.8452923,17.9876844 L26.6995538,19.3660763 C26.6995538,19.3660763 27.2588782,19.8887498 27.3082772,19.9317747 C28.0349208,20.6695729 28.9527864,21.1906529 29.9598889,21.437648 C30.3311783,21.5157303 30.7120288,21.5539747 31.0912857,21.5523812 C32.0999818,21.5874385 33.0895556,21.2782963 33.9006556,20.675947 C34.6671371,20.102281 35.1037607,19.189196 35.0702968,18.2314924 C35.0655163,17.8984475 34.9858405,17.570183 34.8344564,17.2721954 C34.7133491,16.9949235 34.5300947,16.7511155 34.2974413,16.5567064 M5.06421872,14.6848024 L9.88620015,17.3937807 L9.88620015,22.7942087 L5.06421872,25.5 L0.243830814,22.7942087 L0.243830814,17.3937807 L5.06421872,14.6848024 Z M16.0982062,14.6848024 L20.9201876,17.3937807 L20.9201876,22.7942087 L16.0982062,25.5 L11.2778182,22.7942087 L11.2778182,17.3937807 L16.0982062,14.6848024 Z M10.5436851,5.25468949 L12.3905709,6.35740302 L12.3905709,9.53806228 L13.0247906,9.89182298 L15.3720406,11.2096613 L15.3720406,13.3609088 L10.5516527,16.0667001 L5.7312648,13.3609088 L5.7312648,7.96048079 L10.5436851,5.25468949 Z M16.1815471,4.5 L18.7502959,5.94053906 L18.7502959,8.82639774 L16.2022628,10.2541887 L16.1815471,10.2430341 L13.6287334,8.81205609 L13.6287334,5.95169368 L13.6335139,5.93097796 L16.1815471,4.5 Z" id="Combined-Shape" fill="#F9F9F9" fill-rule="nonzero"></path>
        </g>
    </g>
</svg>