<?xml version="1.0" encoding="utf-8"?>
<!-- Generator: Adobe Illustrator 23.1.0, SVG Export Plug-In . SVG Version: 6.00 Build 0)  -->
<svg version="1.1" id="Layer_1" xmlns="http://www.w3.org/2000/svg" xmlns:xlink="http://www.w3.org/1999/xlink" x="0px" y="0px"
	 viewBox="0 0 100.3 100.3" style="enable-background:new 0 0 100.3 100.3;" xml:space="preserve">
<style type="text/css">
	.st0{fill:#242424;}
	.st1{fill:#DB7200;}
</style>
<title>Swarm Logo 1 ○_3</title>
<g>
	<g id="Layer_1-2">
		<circle class="st0" cx="50.2" cy="50.2" r="50"/>
		<polygon class="st1" points="48,68.9 48,54 34.6,46.5 21.3,54 21.3,68.9 34.7,76.4 		"/>
		<polygon class="st1" points="52.3,54 52.3,68.9 65.7,76.4 79,68.9 79,54 65.7,46.5 		"/>
		<polygon class="st1" points="56.7,34 54.7,32.8 54.7,30.6 54.7,23.2 50.1,20.4 36.7,27.9 36.7,42.8 50.1,50.3 63.4,42.8 
			63.4,37.7 		"/>
		<polygon class="st1" points="72.8,22.6 65.7,18.6 58.6,22.6 58.6,22.6 58.6,30.6 65.7,34.5 65.7,34.6 72.8,30.6 		"/>
	</g>
</g>
</svg>
