<svg version="1.1" id="Layer_1" xmlns="http://www.w3.org/2000/svg" x="0" y="0" viewBox="0 0 468 142" xml:space="preserve"><style>.st1,.st2,.st3,.st4{opacity:.45;enable-background:new}.st2,.st3,.st4{opacity:.6}.st3,.st4{opacity:.3}.st4{opacity:.8}</style><g id="XMLID_41_"><g id="XMLID_1_"><g id="Swarm_typeface"><g id="XMLID_42_" opacity=".8"><path id="XMLID_31_" d="M193.7 90c0 9.1-9.5 13.4-17.4 13.4-8.5 0-17.8-3.3-17.8-13.2 0-1.7.1-3 2.2-3 1 0 1.4 1.3 1.4 2.1 0 8.5 6.8 10.6 14.2 10.6 5.8 0 13.8-2.8 13.8-9.8 0-13-31-5.3-31-20.3 0-8.6 9.6-10.8 16.5-10.8 8.1 0 17.1 3 17.1 12.6 0 1-1 1.7-1.9 1.7-1.1 0-1.7-1-1.7-1.9-.3-2.1-.6-3.5-2.1-5.2-2.6-3-7.7-3.6-11.5-3.6-4.5 0-12.9 1-12.9 7.1.1 10.9 31.1 3.5 31.1 20.3z"/><path id="XMLID_30_" d="M264.4 60.9c0 .8-13.2 37.6-14.5 40.9-.3 1-1 1.1-1.9 1.1-.9 0-1.6-.1-1.9-1.1l-12.9-36-12.9 36c-.3 1-1 1.1-1.9 1.1-.9 0-1.7-.1-1.9-1.1-1.3-3.3-14.5-40.1-14.5-40.9 0-1 .8-1.8 1.8-1.8.8 0 1.4.4 1.7 1.1l13 36.4 13-36.4c.3-.9 1-1.1 1.8-1.1.9 0 1.6.3 1.9 1.1l12.9 36.4 13-36.4c.3-.8.9-1.1 1.7-1.1.8 0 1.6.8 1.6 1.8z"/><path id="XMLID_45_" d="M315.3 60.9v39.2c0 1-.8 1.8-1.8 1.8s-1.8-.8-1.8-1.8v-8.2c-3.6 6.6-10.3 11.2-18 11.2-12.1 0-20.7-10.8-20.7-22.4s8.6-22.4 20.7-22.4c7.7 0 14.4 4.6 18 11.2v-8.6c0-.9.8-1.8 1.8-1.8s1.8.9 1.8 1.8zm-4.5 19.8c0-9.6-6.9-18.8-17.1-18.8-10 0-17.1 9.1-17.1 18.8s7.1 18.8 17.1 18.8c10.2 0 17.1-9.2 17.1-18.8z"/><path id="XMLID_27_" d="M352.4 61.3c0 1.1-.6 1.8-1.7 1.9-10.5 1.6-15.3 10.2-15.3 20.2v17.2c0 1-.8 1.8-1.8 1.8-1.1 0-1.8-.8-1.8-1.8V61.4c0-1 .8-1.8 1.8-1.8 1.1 0 1.8.8 1.8 1.8v8c3-5 8.9-9.8 15.1-9.8.8 0 1.9.6 1.9 1.7z"/><path id="XMLID_2_" d="M430.6 77.7v23c0 1-.9 1.8-1.8 1.8-1 0-1.8-.8-1.8-1.8v-23c0-7.7-4.4-15.3-13-15.3-10.9 0-15 11.6-15 20.6v17.8c0 1-.9 1.8-1.8 1.8-1 0-1.8-.8-1.8-1.8v-23c0-7.7-4.4-15.3-13-15.3-10.9 0-15.4 8.6-15.1 20.1 0 .3.1.8 0 .9v17.4c0 1-.8 1.8-1.8 1.8s-1.8-.8-1.8-1.8V61.4c0-1 .8-1.8 1.8-1.8s1.8.8 1.8 1.8V68c3.1-5.5 8.6-9.1 15.1-9.1 7.3 0 13 4.6 15.3 11.5 3-6.7 8.8-11.5 16.2-11.5 10.6-.1 16.7 9.1 16.7 18.8z"/></g></g></g><g id="Swarm_Icon"><path id="XMLID_26_" class="st1" d="M121.3 27v12.4l-11.1-6.2V20.7z"/><path id="XMLID_25_" class="st2" d="M110.2 33.2v12.4l11.1-6.2V27z"/><path id="XMLID_24_" class="st3" d="M37.4 102.7l22.1 12.4 22.1-12.4-22.1-12.5z"/><path id="XMLID_23_" class="st1" d="M59.5 90.2v24.9l-22.1-12.4V77.8z"/><path id="XMLID_22_" class="st1" d="M81.6 77.8v24.9L59.5 90.2V65.4z"/><path id="XMLID_21_" class="st2" d="M59.5 90.2v24.9l22.1-12.4V77.8z"/><path id="XMLID_20_" class="st2" d="M37.4 77.8v24.9l22.1-12.5V65.4z"/><path id="XMLID_19_" class="st4" d="M84 48.4l11 6.2 11.1-6.2L95 42.2z"/><path id="XMLID_18_" class="st4" d="M37.4 77.8l22.1 12.4 22.1-12.4-22.1-12.4z"/><path id="XMLID_17_" class="st3" d="M86.9 102.7l22.1 12.4 22.1-12.4L109 90.2z"/><path id="XMLID_16_" class="st1" d="M109 90.2v24.9l-22.1-12.4V77.8z"/><path id="XMLID_15_" class="st1" d="M131.1 77.8v24.9L109 90.2V65.4z"/><path id="XMLID_14_" class="st2" d="M109 90.2v24.9l22.1-12.4V77.8z"/><path id="XMLID_13_" class="st2" d="M86.9 77.8v24.9L109 90.2V65.4z"/><path id="XMLID_12_" class="st4" d="M86.9 77.8L109 90.2l22.1-12.4L109 65.4z"/><path id="XMLID_11_" class="st2" d="M84 35.9v12.5l11-6.2V29.7z"/><path id="XMLID_10_" class="st3" d="M61.9 60.8L84 73.2l22.1-12.4L84 48.4z"/><path id="XMLID_9_" class="st1" d="M84 48.4v24.8L61.9 60.8V35.9z"/><path id="XMLID_8_" class="st2" d="M61.9 35.9v24.9L84 48.4V23.5z"/><path id="XMLID_7_" class="st2" d="M95 54.6V42.2l-11 6.2v24.8L95 67l11.1-6.2V48.4z"/><g id="XMLID_5_"><path id="XMLID_6_" class="st1" d="M95 29.7l-11-6.2v24.9l22.1 12.4V48.4L95 42.2z"/></g><path id="XMLID_4_" class="st4" d="M84 23.5l11 6.2-11 6.2v12.5L61.9 35.9z"/><path id="XMLID_3_" class="st4" d="M99.2 27l11 6.2 11.1-6.2-11.1-6.3z"/></g></g></svg>